<svg width="171" height="26" viewBox="0 0 171 26" fill="none" xmlns="http://www.w3.org/2000/svg">
<path d="M122.789 13.1199H125.088C125.088 9.75583 122.34 7.0085 118.976 7.0085V9.36336C121.051 9.30729 122.789 11.0454 122.789 13.1199Z" fill="white"/>
<path d="M128.284 13.1199H130.47C130.47 13.2881 130.47 13.5124 130.47 13.7367C130.47 20.4087 125.088 25.7913 118.416 25.7913C111.744 25.7913 106.361 20.4087 106.361 13.7367C106.361 7.06457 111.744 1.68204 118.416 1.68204C118.584 1.68204 118.752 1.68204 118.92 1.68204V3.81262C120.995 3.81262 122.677 2.07452 122.677 0H125.032C125.032 3.36408 122.284 6.11141 118.92 6.11141V5.15826C118.752 5.15826 118.584 5.15826 118.416 5.15826C113.706 5.15826 109.837 9.02695 109.837 13.7367C109.837 18.4464 113.706 22.3151 118.416 22.3151C123.181 22.3151 126.994 18.4464 126.994 13.7367C126.994 13.5124 126.994 13.3442 126.994 13.1199H125.929C125.929 9.75583 128.676 7.0085 132.04 7.0085V9.30728C130.022 9.30728 128.284 11.0454 128.284 13.1199Z" fill="white"/>
<path d="M128.284 0H125.985C125.985 3.36408 128.732 6.11141 132.096 6.11141V3.81262C130.022 3.81262 128.284 2.07452 128.284 0Z" fill="white"/>
<path d="M25.5111 8.85876L31.2861 20.7452H31.3982L37.3975 8.85876H42.1633V25.2306H38.5189V13.7927H38.3507L32.7999 25.2306H29.6601L24.3337 13.7927H24.1655V25.2306H20.5771V8.85876H25.5111Z" fill="white"/>
<path d="M53.0962 8.91458H57.6938L65.5994 25.2304H61.3382L59.8804 22.1466H50.9096L49.5079 25.2304H45.2467L53.0962 8.91458ZM58.7591 19.3993L55.395 12.2787L52.0309 19.3993H58.7591Z" fill="white"/>
<path d="M103.053 8.85876V12.1668H96.9417V25.2306H93.2412V12.1668H87.1298V8.85876H103.053Z" fill="white"/>
<path d="M137.759 8.85876L147.571 19.9042V8.85876H151.271V25.2306H147.739L137.927 14.1852V25.2306H134.283V8.85876H137.759Z" fill="white"/>
<path d="M169.83 8.85876V12.2228H158.672V15.2505H168.708V18.5585H158.672V21.8665H170.278V25.2306H154.972V8.85876H169.83Z" fill="white"/>
<path d="M68.7393 8.85876H77.4859C79.9529 8.85876 81.8032 9.41944 83.0927 10.5408C84.158 11.4379 84.7187 12.7275 84.7187 14.3534C84.7187 16.9886 83.0367 18.6707 80.6257 19.4556L85.3354 25.2867H80.7379L76.5888 20.0163H72.6641V25.2867H68.7393V8.85876ZM77.2617 16.8204C79.3362 16.8204 80.5136 15.8673 80.5136 14.4656C80.5136 12.8957 79.2801 12.1107 77.2056 12.1107H72.7201V16.8204H77.2617V16.8204Z" fill="white"/>
<path d="M14.8019 13.4563C12.8956 12.1107 10.9333 11.6061 8.29806 11.6061C5.10219 11.6061 4.31724 12.4471 4.31724 13.3442C4.31724 14.2973 5.15826 14.5216 6.44782 14.6898L11.3818 15.2505C14.9141 15.643 17.0447 17.1568 17.0447 20.1845C17.0447 23.885 13.4563 25.5109 8.52234 25.5109C5.15826 25.5109 2.6352 24.7821 0 22.8757L1.73811 20.0163C3.98083 21.5862 6.16748 22.3151 8.91481 22.3151C11.55 22.3151 13.4563 21.6423 13.4563 20.2406C13.4563 19.3435 13.0078 18.8949 11.6061 18.7828L6.05534 18.11C2.69126 17.7175 0.672816 16.4279 0.672816 13.3442C0.672816 9.86798 4.09296 8.242 8.29806 8.242C11.3818 8.242 14.017 8.80268 16.5961 10.6529L14.8019 13.4563Z" fill="white"/>
</svg>
